<svg xmlns="http://www.w3.org/2000/svg" viewBox="0 0 512 512" fill="none">
  <defs>
    <radialGradient id="bg" cx="50%" cy="45%" r="70%">
      <stop offset="0%" stop-color="#0e1d3b"/>
      <stop offset="100%" stop-color="#0a0e1f"/>
    </radialGradient>
    <radialGradient id="e" cx="38%" cy="32%" r="65%">
      <stop offset="0%" stop-color="#2d8abf"/>
      <stop offset="100%" stop-color="#071525"/>
    </radialGradient>
    <radialGradient id="a" cx="50%" cy="50%" r="50%">
      <stop offset="55%" stop-color="transparent"/>
      <stop offset="100%" stop-color="rgba(77,168,218,0.35)"/>
    </radialGradient>
  </defs>
  <rect width="512" height="512" fill="url(#bg)"/>
  <circle cx="58"  cy="72"  r="1.5" fill="rgba(255,255,255,0.65)"/>
  <circle cx="448" cy="95"  r="1"   fill="rgba(255,255,255,0.5)"/>
  <circle cx="108" cy="428" r="1.5" fill="rgba(255,255,255,0.55)"/>
  <circle cx="468" cy="390" r="1"   fill="rgba(255,255,255,0.7)"/>
  <circle cx="72"  cy="310" r="1"   fill="rgba(255,255,255,0.45)"/>
  <circle cx="412" cy="452" r="1.5" fill="rgba(255,255,255,0.6)"/>
  <circle cx="352" cy="52"  r="1"   fill="rgba(255,255,255,0.5)"/>
  <circle cx="480" cy="200" r="1.5" fill="rgba(255,255,255,0.55)"/>
  <circle cx="30"  cy="180" r="1"   fill="rgba(255,255,255,0.5)"/>
  <circle cx="256" cy="256" r="180" fill="url(#e)"/>
  <ellipse cx="256" cy="256" rx="180" ry="61"  fill="none" stroke="rgba(77,168,218,0.45)" stroke-width="7"/>
  <ellipse cx="256" cy="190" rx="142" ry="43"  fill="none" stroke="rgba(77,168,218,0.25)" stroke-width="6"/>
  <ellipse cx="256" cy="322" rx="142" ry="43"  fill="none" stroke="rgba(77,168,218,0.25)" stroke-width="6"/>
  <ellipse cx="256" cy="256" rx="85"  ry="180" fill="none" stroke="rgba(77,168,218,0.35)" stroke-width="7"/>
  <circle cx="256" cy="256" r="180" fill="url(#a)"/>
  <circle cx="256" cy="256" r="180" fill="none" stroke="rgba(120,190,255,0.5)" stroke-width="18"/>
  <ellipse cx="256" cy="256" rx="247" ry="85" fill="none" stroke="rgba(77,168,218,0.55)" stroke-width="11" stroke-dasharray="31 21" transform="rotate(-28 256 256)"/>
  <circle cx="479" cy="204" r="38" fill="rgba(242,211,153,0.18)"/>
  <circle cx="479" cy="204" r="21" fill="#F2D399" opacity="0.95"/>
</svg>
